# xmcd
#
# Track frame offsets: 
#        150
#        20082
#        35950
#        62667
#        82498
#        105044
#        124243
#        144822
#        164256
#        179336
#        201449
#        218657
#        237021
#        259873
#        280906
#        302868
#
# Disc length: 4315 seconds
#
# Revision: 1
# Processed by: cddbd v1.5.2PL0 Copyright (c) Steve Scherf et al.
# Submitted via: ExactAudioCopy v0.90b4
#
DISCID=ea10d910
DTITLE=Thåström - Be-Bop-A-Lula hela jävla dan
DYEAR=2009
DGENRE=Blues
TTITLE0=Fanfanfan
TTITLE1=Ungefär så här...
TTITLE2=Kort biografi med litet testamente (alternativ mix)
TTITLE3=Alla vill till himlen
TTITLE4=Brev till 10:e våningen
TTITLE5=Karenina
TTITLE6=Elvis Presley för en dag
TTITLE7=Sønder Boulevard
TTITLE8=Kärlek är för dom
TTITLE9=Aldrig nånsin komma ner
TTITLE10=Ståaldrigstill
TTITLE11=Om Black Jim
TTITLE12=Miss Huddinge -72
TTITLE13=Ingen sjunger blues som Jeffrey Lee Pierce
TTITLE14=Släpp aldrig in dom
TTITLE15=Llångtbort
EXTD=
EXTT0=
EXTT1=
EXTT2=
EXTT3=
EXTT4=
EXTT5=
EXTT6=
EXTT7=
EXTT8=
EXTT9=
EXTT10=
EXTT11=
EXTT12=
EXTT13=
EXTT14=
EXTT15=
PLAYORDER=
